<?xml version="1.0" encoding="utf-8"?>
<!-- Generator: Adobe Illustrator 23.0.3, SVG Export Plug-In . SVG Version: 6.00 Build 0)  -->
<svg version="1.1" id="Calque_1" xmlns="http://www.w3.org/2000/svg" xmlns:xlink="http://www.w3.org/1999/xlink" x="0px" y="0px"
	 viewBox="0 0 512 512" style="enable-background:new 0 0 512 512;" xml:space="preserve">
<style type="text/css">
	.st0{opacity:0.05;fill:#FFDA2D;enable-background:new    ;}
	.st1{opacity:0.05;fill:#FFF5F5;enable-background:new    ;}
	.st2{opacity:0.05;enable-background:new    ;}
</style>
<path class="st0" d="M181.93,66.04c-41.29,0-74.77,33.48-74.77,74.77c0,12.27,2.95,23.85,8.19,34.06l0.01,0.01l92.55,36.06h0.01
	c28.48-10.55,48.78-37.97,48.78-70.12C256.7,99.52,223.22,66.04,181.93,66.04z"/>
<path class="st1" d="M221.18,223.05c25.81,0,46.73,20.92,46.73,46.73c0,25.81-20.92,46.73-46.73,46.73H43.61
	c-20.65,0-37.38-16.74-37.38-37.38c0-20.65,16.74-37.38,37.38-37.38c0-20.65,16.74-37.38,37.38-37.38c2.12,0,4.17,0.29,6.2,0.62
	c10.6-22.87,33.45-38.01,59.22-38.01c33.5,0,60.55,25.19,64.6,57.26C214.3,223.51,217.68,223.05,221.18,223.05z"/>
<path class="st2" d="M43.61,322.74h177.57c29.2,0,52.96-23.76,52.96-52.96c0-29.2-23.76-52.96-52.96-52.96
	c-1.68,0-3.36,0.09-5.08,0.27c-0.19-0.85-0.39-1.7-0.61-2.55c28.19-12.81,47.44-41.19,47.44-73.73c0-33.74-20.75-63.26-51.15-75.32
	c-3.2-1.27-6.82,0.3-8.09,3.5c-1.27,3.2,0.3,6.82,3.5,8.09c26.29,10.43,43.28,35.45,43.28,63.74c0,26.5-15.51,50.67-39.14,61.92
	c-11.5-25.36-36.8-41.98-64.91-41.98c-9.66,0-19.23,1.98-28.05,5.75c-3.3-8.12-4.97-16.74-4.97-25.69
	c0-28.29,16.99-53.31,43.29-63.74c3.2-1.27,4.76-4.89,3.5-8.09c-1.27-3.2-4.89-4.76-8.09-3.5c-30.39,12.05-51.16,41.54-51.16,75.32
	c0,10.87,2.21,21.69,6.42,31.63c-9.84,6.49-18.07,15.41-23.73,25.8c-0.85-0.07-1.73-0.11-2.62-0.11
	c-22.07,0-40.36,16.47-43.23,37.77C16.47,238.76,0,257.06,0,279.13C0,303.17,19.56,322.74,43.61,322.74z M43.61,247.97
	c3.44,0,6.23-2.79,6.23-6.23c0-17.18,13.97-31.15,31.15-31.15c1.61,0,3.23,0.22,5.18,0.54c2.77,0.46,5.5-0.98,6.67-3.53
	c9.73-20.97,30.54-34.39,53.57-34.39c29.5,0,54.67,22.08,58.42,51.81c0.22,1.74,1.16,3.31,2.59,4.32c1.43,1.01,3.23,1.37,4.94,0.99
	c3.14-0.7,6.02-1.03,8.82-1.03c22.33,0,40.5,18.17,40.5,40.5c0,22.33-18.17,40.5-40.5,40.5H43.61c-17.18,0-31.15-13.97-31.15-31.15
	C12.46,261.95,26.44,247.97,43.61,247.97z"/>
<path class="st2" d="M120.46,46.8c1.71,2.97,5.52,4.01,8.51,2.28c2.98-1.72,4-5.53,2.28-8.51l-9.35-16.19
	c-1.72-2.98-5.53-4.01-8.51-2.28c-2.98,1.72-4.01,5.53-2.28,8.51L120.46,46.8z"/>
<path class="st2" d="M282.17,90.13l16.19-9.35c2.98-1.72,4.01-5.53,2.28-8.51c-1.72-2.98-5.53-4.01-8.51-2.28l-16.19,9.35
	c-2.98,1.72-4.01,5.53-2.28,8.51C275.37,90.82,279.17,91.86,282.17,90.13z"/>
<path class="st2" d="M65.5,80.78l16.19,9.35c3,1.73,6.8,0.68,8.51-2.28c1.72-2.98,0.7-6.79-2.28-8.51l-16.19-9.35
	c-2.98-1.72-6.79-0.7-8.51,2.28C61.5,75.26,62.52,79.06,65.5,80.78z"/>
<path class="st2" d="M275.93,202.28l16.19,9.35c2.97,1.71,6.78,0.71,8.51-2.28c1.72-2.98,0.7-6.79-2.28-8.51l-16.19-9.35
	c-2.98-1.73-6.79-0.7-8.51,2.28C271.94,196.75,272.96,200.56,275.93,202.28z"/>
<path class="st2" d="M234.89,49.08c2.97,1.71,6.78,0.71,8.51-2.28l9.35-16.19c1.72-2.98,0.7-6.79-2.28-8.51
	c-2.98-1.72-6.79-0.7-8.51,2.28l-9.35,16.19C230.89,43.56,231.91,47.36,234.89,49.08z"/>
<path class="st2" d="M181.93,34.89c3.44,0,6.23-2.79,6.23-6.23V9.97c0-3.44-2.79-6.23-6.23-6.23s-6.23,2.79-6.23,6.23v18.69
	C175.7,32.1,178.49,34.89,181.93,34.89z"/>
<path class="st2" d="M287.85,140.81c0,3.44,2.79,6.23,6.23,6.23h18.69c3.44,0,6.23-2.79,6.23-6.23s-2.79-6.23-6.23-6.23h-18.69
	C290.64,134.58,287.85,137.37,287.85,140.81z"/>
<path class="st2" d="M51.09,147.04h18.69c3.44,0,6.23-2.79,6.23-6.23s-2.79-6.23-6.23-6.23H51.09c-3.44,0-6.23,2.79-6.23,6.23
	S47.65,147.04,51.09,147.04z"/>
<path class="st2" d="M188.16,66.04c0,3.44-2.79,6.23-6.23,6.23s-6.23-2.79-6.23-6.23s2.79-6.23,6.23-6.23S188.16,62.6,188.16,66.04z
	"/>
</svg>
