<?xml version="1.0" encoding="utf-8"?>
<!-- Generator: Adobe Illustrator 23.0.3, SVG Export Plug-In . SVG Version: 6.00 Build 0)  -->
<svg version="1.1" id="Calque_1" xmlns="http://www.w3.org/2000/svg" xmlns:xlink="http://www.w3.org/1999/xlink" x="0px" y="0px"
	 viewBox="0 0 841.89 595.28" style="enable-background:new 0 0 841.89 595.28;" xml:space="preserve">
<style type="text/css">
	.st0{fill:#EEF1F4;}
</style>
<g>
	<path class="st0" d="M398.98,516.37c-0.3,0-0.4-0.01-0.43-0.01l-0.12-0.02l-0.09-0.01c-2.47-0.35-4.18-2.71-3.83-5.26l10.7-76.34
		c0.31-2.27,2.23-3.98,4.46-3.98c0.21,0,0.42,0.02,0.63,0.04c2.45,0.36,4.17,2.72,3.82,5.26l-10.7,76.35
		C403.1,514.66,401.19,516.37,398.98,516.37z M341.53,516.37c-0.31,0-0.42-0.01-0.45-0.01l-0.2-0.03c-2.46-0.35-4.18-2.72-3.83-5.27
		l10.7-76.33c0.32-2.26,2.24-3.98,4.47-3.98c0.2,0,0.41,0.02,0.62,0.04c2.45,0.36,4.18,2.71,3.82,5.25l-10.7,76.36
		C345.65,514.67,343.74,516.37,341.53,516.37z M459.81,478.44c-0.19,0-0.41-0.02-0.67-0.05c-2.45-0.37-4.15-2.72-3.79-5.26
		l5.35-38.41c0.32-2.26,2.27-3.96,4.54-3.96c0.2,0,0.4,0.01,0.6,0.04c2.4,0.35,4.13,2.71,3.78,5.25l-5.35,38.4
		C463.94,476.72,462.02,478.44,459.81,478.44z M291.38,478.44c-0.2,0-0.43-0.02-0.71-0.05c-2.4-0.34-4.12-2.71-3.77-5.27l5.36-38.4
		c0.32-2.26,2.27-3.96,4.54-3.96c0.2,0,0.4,0.01,0.59,0.04c2.4,0.35,4.13,2.71,3.77,5.26l-5.35,38.4
		C295.5,476.72,293.59,478.44,291.38,478.44z M285.72,393.64c-36.47,0-63.97-26.49-63.97-61.63c0-26.78,15.75-50.46,40.12-60.3
		l4.24-1.71l-0.64-4.53c-0.35-2.46-0.53-5.02-0.53-7.61c0-29.31,23.5-53.16,52.38-53.16c9.72,0,19.18,2.7,27.37,7.8l4.89,3.04
		l3.12-4.84c14.61-22.63,39.23-36.15,65.84-36.15c6.3,0,12.83,0.86,19.39,2.56l3.2,0.83l2.36-2.31
		c11.32-11.08,25.52-18.4,41.09-21.19c4.56-0.81,9.21-1.23,13.81-1.23c38.52,0,71.36,27.95,78.09,66.46
		c2.74,15.71,0.79,31.79-5.63,46.5c-6.38,14.59-16.69,26.8-29.82,35.32l-3.79,2.46l1.42,4.29c2.22,6.69,3.34,13.57,3.34,20.46
		c0,35.81-28.7,64.94-63.97,64.94H285.72z M317.31,213.95c-23.92,0-43.38,19.69-43.38,43.89c0,4.85,0.76,9.56,2.25,14
		c0.4,1.23,0.28,2.62-0.36,3.79c-0.61,1.1-1.67,1.92-2.9,2.21c-24.84,5.98-42.19,28.25-42.19,54.16c0,29.85,23.64,52.36,54.98,52.36
		h192.31c30.32,0,54.98-24.98,54.98-55.67c0-25.81-18.03-48.65-42.86-54.32c-2.33-0.53-3.85-2.84-3.48-5.26
		c0.57-3.72,1.53-10.99,1.53-14.77c0-38.88-31.25-70.52-69.66-70.52c-27.29,0-52.2,16.27-63.47,41.44
		c-0.61,1.37-1.84,2.34-3.27,2.61c-0.29,0.06-0.56,0.08-0.82,0.08c-1.15,0-2.29-0.48-3.13-1.31
		C339.67,218.47,328.82,213.95,317.31,213.95z M498.47,162.49c-4.12,0-8.27,0.37-12.36,1.11c-10.37,1.86-19.96,5.93-28.5,12.11
		l-7.22,5.22l7.66,4.55c24.13,14.32,39.12,40.72,39.12,68.88c0,1.82-0.17,4.33-0.49,7.43l-0.47,4.47l4.2,1.61
		c11.82,4.52,22.03,12.52,29.52,23.15l3.35,4.74l4.77-3.31c22.76-15.8,34.37-43.72,29.56-71.13
		C561.69,187.24,532.61,162.49,498.47,162.49z M600.2,356.45c-1.2,0-2.32-0.48-3.17-1.34l-20.41-20.97
		c-1.79-1.84-1.78-4.81,0.03-6.61c0.86-0.86,1.96-1.33,3.13-1.33c1.19,0,2.32,0.48,3.17,1.35l20.42,20.97
		c1.79,1.84,1.77,4.81-0.03,6.61C602.49,355.99,601.38,356.45,600.2,356.45z M621.09,249.86c-2.46,0-4.48-2.07-4.5-4.62
		c-0.01-2.54,2-4.63,4.48-4.65l29.04-0.19c2.5,0,4.52,2.07,4.54,4.61c0.01,2.54-2,4.64-4.48,4.66l-29.03,0.19H621.09z
		 M591.18,148.85c-1.17,0-2.29-0.47-3.14-1.32c-1.81-1.81-1.82-4.77-0.03-6.59l20.42-20.98c0.85-0.87,1.97-1.35,3.16-1.35
		c1.18,0,2.29,0.47,3.13,1.31c1.81,1.82,1.83,4.78,0.05,6.61l-20.42,20.95C593.49,148.38,592.37,148.85,591.18,148.85z
		 M398.67,148.85c-1.2,0-2.31-0.48-3.15-1.34l-20.43-20.98c-1.79-1.84-1.77-4.8,0.04-6.61c0.85-0.85,1.96-1.32,3.14-1.32
		c1.19,0,2.31,0.48,3.16,1.35l20.41,20.97c1.8,1.84,1.78,4.8-0.03,6.61C400.95,148.38,399.84,148.85,398.67,148.85z M498.54,111.32
		c-2.46,0-4.48-2.07-4.51-4.62l-0.19-29.43c-0.01-2.56,2-4.66,4.48-4.68c2.48,0,4.5,2.07,4.52,4.62l0.19,29.43
		c0.01,2.55-1.99,4.66-4.46,4.69H498.54z"/>
</g>
<g>
	<g>
		<circle class="st0" cx="355.71" cy="268.09" r="12.37"/>
		<circle class="st0" cx="421.21" cy="268.09" r="12.37"/>
		<path class="st0" d="M329.87,360.55c3,0.9,6.2-0.82,7.1-3.83c0.1-0.34,10.67-34.08,51.5-34.08c40.56,0,51.07,32.71,51.5,34.1
			c0.91,3.01,4.11,4.71,7.09,3.81c3.02-0.9,4.74-4.08,3.83-7.1c-0.13-0.42-13.2-42.22-62.43-42.22s-62.3,41.8-62.43,42.23
			C325.14,356.47,326.85,359.65,329.87,360.55z"/>
	</g>
</g>
<g id="g4493" transform="translate(-19.946312,-19.809252)">
	<path id="path4489" class="st0" d="M270.26,193.38l21.67-58.78v-0.21v-0.21c1.07-3.86,0-7.51-2.79-10.3
		c-2.79-2.79-6.44-3.86-10.3-2.79h-0.21h-0.21l-58.78,21.67c-3.43,1.07-6.44,3.86-7.29,7.51c-1.07,3.86,0,7.51,2.79,10.3
		l12.66,12.66l4.51-4.51l-12.66-12.66c-2.36-2.36-1.29-6.44,1.93-7.08l57.71-21.24l-33.47,33.25l-19.09,19.09
		c-1.72,1.72-1.72,4.51,0,6.01c1.72,1.72,4.51,1.72,6.01,0l52.78-52.56l-21.03,57.71c-0.86,3.22-4.93,4.29-7.08,1.93l-12.66-12.66
		l-4.51,4.51l12.66,12.66c2.79,2.79,6.65,3.65,10.3,2.79C266.61,199.6,269.4,197.03,270.26,193.38z"/>
</g>
<path id="path4485-5" class="st0" d="M183.47,189.76c-0.86-0.86-0.86-2.15,0-3l14.21-14.21c0.86-0.86,2.15-0.86,3,0
	c0.86,0.86,0.86,2.15,0,3l-14.21,14.21C185.61,190.62,184.33,190.62,183.47,189.76z"/>
<path id="path4485-5-1" class="st0" d="M183.58,207.89c-0.86-0.86-0.86-2.15,0-3l14.21-14.21c0.86-0.86,2.15-0.86,3,0
	c0.86,0.86,0.86,2.15,0,3l-14.21,14.21C185.73,208.75,184.44,208.75,183.58,207.89z"/>
<path id="path4485-5-1-9" class="st0" d="M165.24,189.74c-0.86-0.86-0.86-2.15,0-3l14.21-14.21c0.86-0.86,2.15-0.86,3,0
	c0.86,0.86,0.86,2.15,0,3l-14.21,14.21C167.39,190.59,166.1,190.59,165.24,189.74z"/>
<g id="g4493_6_" transform="translate(-19.946312,-19.809252)">
	<path id="path4489_6_" class="st0" d="M707.04,479.58l21.67-58.78v-0.21v-0.21c1.07-3.86,0-7.51-2.79-10.3
		c-2.79-2.79-6.44-3.86-10.3-2.79h-0.21h-0.21l-58.78,21.67c-3.43,1.07-6.44,3.86-7.29,7.51c-1.07,3.86,0,7.51,2.79,10.3
		l12.66,12.66l4.51-4.51l-12.66-12.66c-2.36-2.36-1.29-6.44,1.93-7.08l57.71-21.24l-33.47,33.25l-19.09,19.09
		c-1.72,1.72-1.72,4.51,0,6.01c1.72,1.72,4.51,1.72,6.01,0l52.78-52.56l-21.03,57.71c-0.86,3.22-4.93,4.29-7.08,1.93l-12.66-12.66
		l-4.51,4.51l12.66,12.66c2.79,2.79,6.65,3.65,10.3,2.79C703.39,485.8,706.18,483.22,707.04,479.58z"/>
</g>
<path id="path4485-5_6_" class="st0" d="M620.25,475.95c-0.86-0.86-0.86-2.15,0-3l14.21-14.21c0.86-0.86,2.15-0.86,3,0
	c0.86,0.86,0.86,2.15,0,3l-14.21,14.21C622.4,476.81,621.11,476.81,620.25,475.95z"/>
<path id="path4485-5-1_6_" class="st0" d="M620.36,494.09c-0.86-0.86-0.86-2.15,0-3l14.21-14.21c0.86-0.86,2.15-0.86,3,0
	c0.86,0.86,0.86,2.15,0,3l-14.21,14.21C622.51,494.95,621.22,494.95,620.36,494.09z"/>
<path id="path4485-5-1-9_4_" class="st0" d="M602.02,475.93c-0.86-0.86-0.86-2.15,0-3l14.21-14.21c0.86-0.86,2.15-0.86,3,0
	c0.86,0.86,0.86,2.15,0,3l-14.21,14.21C604.17,476.79,602.88,476.79,602.02,475.93z"/>
<g id="g4493_4_" transform="translate(-19.946312,-19.809252)">
	<path id="path4489_4_" class="st0" d="M232.21,289.1l13.67-37.08v-0.14v-0.14c0.68-2.44,0-4.74-1.76-6.5s-4.06-2.44-6.5-1.76h-0.14
		h-0.14l-37.08,13.67c-2.17,0.68-4.06,2.44-4.6,4.74c-0.68,2.44,0,4.74,1.76,6.5l7.98,7.98l2.84-2.84l-7.98-7.98
		c-1.49-1.49-0.81-4.06,1.22-4.47l36.4-13.4l-21.11,20.97l-12.04,12.04c-1.08,1.08-1.08,2.84,0,3.79c1.08,1.08,2.84,1.08,3.79,0
		l33.29-33.15l-13.26,36.4c-0.54,2.03-3.11,2.71-4.47,1.22l-7.98-7.98l-2.84,2.84l7.98,7.98c1.76,1.76,4.19,2.3,6.5,1.76
		C229.9,293.03,231.66,291.4,232.21,289.1z"/>
</g>
<path id="path4485-5_4_" class="st0" d="M170.1,279.5c-0.54-0.54-0.54-1.35,0-1.89l8.97-8.97c0.54-0.54,1.35-0.54,1.89,0
	c0.54,0.54,0.54,1.35,0,1.89l-8.97,8.97C171.45,280.05,170.64,280.05,170.1,279.5z"/>
<path id="path4485-5-1_4_" class="st0" d="M170.17,290.94c-0.54-0.54-0.54-1.35,0-1.89l8.97-8.97c0.54-0.54,1.35-0.54,1.89,0
	c0.54,0.54,0.54,1.35,0,1.89l-8.97,8.97C171.52,291.48,170.71,291.48,170.17,290.94z"/>
<path id="path4485-5-1-9_3_" class="st0" d="M158.6,279.49c-0.54-0.54-0.54-1.35,0-1.89l8.97-8.97c0.54-0.54,1.35-0.54,1.89,0
	c0.54,0.54,0.54,1.35,0,1.89l-8.97,8.97C159.95,280.03,159.14,280.03,158.6,279.49z"/>
<g id="g4493_1_" transform="translate(-19.946312,-19.809252)">
	<path id="path4489_1_" class="st0" d="M586.7,444.55l10.01-27.16v-0.1v-0.1c0.5-1.78,0-3.47-1.29-4.76
		c-1.29-1.29-2.97-1.78-4.76-1.29h-0.1h-0.1l-27.16,10.01c-1.59,0.5-2.97,1.78-3.37,3.47c-0.5,1.78,0,3.47,1.29,4.76l5.85,5.85
		l2.08-2.08l-5.85-5.85c-1.09-1.09-0.59-2.97,0.89-3.27l26.66-9.81l-15.46,15.36l-8.82,8.82c-0.79,0.79-0.79,2.08,0,2.78
		c0.79,0.79,2.08,0.79,2.78,0l24.38-24.28l-9.71,26.66c-0.4,1.49-2.28,1.98-3.27,0.89l-5.85-5.85l-2.08,2.08l5.85,5.85
		c1.29,1.29,3.07,1.68,4.76,1.29C585.02,447.43,586.3,446.24,586.7,444.55z"/>
</g>
<path id="path4485-5_1_" class="st0" d="M535.87,432.22c-0.4-0.4-0.4-0.99,0-1.39l6.57-6.57c0.4-0.4,0.99-0.4,1.39,0
	c0.4,0.4,0.4,0.99,0,1.39l-6.57,6.57C536.87,432.62,536.27,432.62,535.87,432.22z"/>
<path id="path4485-5-1_1_" class="st0" d="M535.93,440.6c-0.4-0.4-0.4-0.99,0-1.39l6.57-6.57c0.4-0.4,0.99-0.4,1.39,0
	c0.4,0.4,0.4,0.99,0,1.39l-6.57,6.57C536.92,440.99,536.32,440.99,535.93,440.6z"/>
<path id="path4485-5-1-9_1_" class="st0" d="M527.45,432.21c-0.4-0.4-0.4-0.99,0-1.39l6.57-6.57c0.4-0.4,0.99-0.4,1.39,0
	c0.4,0.4,0.4,0.99,0,1.39l-6.57,6.57C528.44,432.6,527.85,432.6,527.45,432.21z"/>
<g id="g4493_2_" transform="translate(-19.946312,-19.809252)">
	<path id="path4489_2_" class="st0" d="M675.01,202.94l10.01-27.16v-0.1v-0.1c0.5-1.78,0-3.47-1.29-4.76
		c-1.29-1.29-2.97-1.78-4.76-1.29h-0.1h-0.1l-27.16,10.01c-1.59,0.5-2.97,1.78-3.37,3.47c-0.5,1.78,0,3.47,1.29,4.76l5.85,5.85
		l2.08-2.08l-5.85-5.85c-1.09-1.09-0.59-2.97,0.89-3.27l26.66-9.81l-15.46,15.36l-8.82,8.82c-0.79,0.79-0.79,2.08,0,2.78
		c0.79,0.79,2.08,0.79,2.78,0l24.38-24.28l-9.71,26.66c-0.4,1.49-2.28,1.98-3.27,0.89l-5.85-5.85l-2.08,2.08l5.85,5.85
		c1.29,1.29,3.07,1.68,4.76,1.29C673.33,205.82,674.62,204.63,675.01,202.94z"/>
</g>
<path id="path4485-5_2_" class="st0" d="M624.19,190.61c-0.4-0.4-0.4-0.99,0-1.39l6.57-6.57c0.4-0.4,0.99-0.4,1.39,0
	c0.4,0.4,0.4,0.99,0,1.39l-6.57,6.57C625.18,191.01,624.58,191.01,624.19,190.61z"/>
<path id="path4485-5-1_2_" class="st0" d="M624.24,198.99c-0.4-0.4-0.4-0.99,0-1.39l6.57-6.57c0.4-0.4,0.99-0.4,1.39,0
	c0.4,0.4,0.4,0.99,0,1.39l-6.57,6.57C625.23,199.38,624.63,199.38,624.24,198.99z"/>
<g id="g4493_3_" transform="translate(-19.946312,-19.809252)">
	<path id="path4489_3_" class="st0" d="M249.88,469.42l10.01-27.16v-0.1v-0.1c0.5-1.78,0-3.47-1.29-4.76s-2.97-1.78-4.76-1.29h-0.1
		h-0.1l-27.16,10.01c-1.59,0.5-2.97,1.78-3.37,3.47c-0.5,1.78,0,3.47,1.29,4.76l5.85,5.85l2.08-2.08l-5.85-5.85
		c-1.09-1.09-0.59-2.97,0.89-3.27l26.66-9.81l-15.46,15.36l-8.82,8.82c-0.79,0.79-0.79,2.08,0,2.78c0.79,0.79,2.08,0.79,2.78,0
		l24.38-24.28l-9.71,26.66c-0.4,1.49-2.28,1.98-3.27,0.89l-5.85-5.85l-2.08,2.08l5.85,5.85c1.29,1.29,3.07,1.68,4.76,1.29
		C248.19,472.3,249.48,471.11,249.88,469.42z"/>
</g>
<path id="path4485-5_3_" class="st0" d="M199.05,457.09c-0.4-0.4-0.4-0.99,0-1.39l6.57-6.57c0.4-0.4,0.99-0.4,1.39,0
	s0.4,0.99,0,1.39l-6.57,6.57C200.04,457.49,199.45,457.49,199.05,457.09z"/>
<path id="path4485-5-1_3_" class="st0" d="M199.1,465.47c-0.4-0.4-0.4-0.99,0-1.39l6.57-6.57c0.4-0.4,0.99-0.4,1.39,0
	c0.4,0.4,0.4,0.99,0,1.39l-6.57,6.57C200.09,465.87,199.5,465.87,199.1,465.47z"/>
<g id="g4493_5_" transform="translate(-19.946312,-19.809252)">
	<path id="path4489_5_" class="st0" d="M167.94,145.7l10.01-27.16v-0.1v-0.1c0.5-1.78,0-3.47-1.29-4.76s-2.97-1.78-4.76-1.29h-0.1
		h-0.1l-27.16,10.01c-1.59,0.5-2.97,1.78-3.37,3.47c-0.5,1.78,0,3.47,1.29,4.76l5.85,5.85l2.08-2.08l-5.85-5.85
		c-1.09-1.09-0.59-2.97,0.89-3.27l26.66-9.81l-15.46,15.36l-8.82,8.82c-0.79,0.79-0.79,2.08,0,2.78c0.79,0.79,2.08,0.79,2.78,0
		l24.38-24.28l-9.71,26.66c-0.4,1.49-2.28,1.98-3.27,0.89l-5.85-5.85l-2.08,2.08l5.85,5.85c1.29,1.29,3.07,1.68,4.76,1.29
		C166.26,148.57,167.55,147.38,167.94,145.7z"/>
</g>
<path id="path4485-5_5_" class="st0" d="M117.11,133.37c-0.4-0.4-0.4-0.99,0-1.39l6.57-6.57c0.4-0.4,0.99-0.4,1.39,0
	c0.4,0.4,0.4,0.99,0,1.39l-6.57,6.57C118.11,133.76,117.51,133.76,117.11,133.37z"/>
<path id="path4485-5-1_5_" class="st0" d="M117.17,141.74c-0.4-0.4-0.4-0.99,0-1.39l6.57-6.57c0.4-0.4,0.99-0.4,1.39,0
	c0.4,0.4,0.4,0.99,0,1.39l-6.57,6.57C118.16,142.14,117.56,142.14,117.17,141.74z"/>
<path id="path4485-5-1-9_2_" class="st0" d="M615.76,190.6c-0.4-0.4-0.4-0.99,0-1.39l6.57-6.57c0.4-0.4,0.99-0.4,1.39,0
	c0.4,0.4,0.4,0.99,0,1.39l-6.57,6.57C616.76,191,616.16,191,615.76,190.6z"/>
</svg>
