<?xml version="1.0" encoding="utf-8"?>
<!-- Generator: Adobe Illustrator 23.0.3, SVG Export Plug-In . SVG Version: 6.00 Build 0)  -->
<svg version="1.1" id="Calque_1" xmlns="http://www.w3.org/2000/svg" xmlns:xlink="http://www.w3.org/1999/xlink" x="0px" y="0px"
	 viewBox="0 0 512 512" style="enable-background:new 0 0 512 512;" xml:space="preserve">
<style type="text/css">
	.st0{fill:#A0ECFF;}
	.st1{fill:#60DAFF;}
	.st2{fill:#F0F5F7;}
	.st3{fill:#DDE9ED;}
</style>
<path class="st0" d="M433.78,233.02c-4.33-71.58-63.75-128.29-136.42-128.29c-58.61,0-108.59,36.89-128.02,88.72
	c-50.47,0.61-91.2,41.69-91.2,92.31c0,51,41.34,92.33,92.33,92.33h260.77c40.07,0,72.56-32.49,72.56-72.56
	C503.81,266.3,472.68,234.36,433.78,233.02z"/>
<path class="st1" d="M503.81,305.52c0,40.07-32.49,72.57-72.57,72.57h-5.62c5.26-10.05,8.24-21.48,8.24-33.6
	c0-39.23-31.12-71.16-70.03-72.5c-4.33-71.58-63.75-128.3-136.42-128.3c-9.8,0-19.35,1.03-28.56,2.99
	c24.86-25.85,59.8-41.94,98.51-41.94c72.67,0,132.09,56.71,136.42,128.3C472.68,234.36,503.81,266.3,503.81,305.52z"/>
<path class="st2" d="M58.26,274.38c3.1-51.17,45.57-91.72,97.53-91.72c41.9,0,77.64,26.38,91.52,63.43
	c36.09,0.44,65.2,29.81,65.2,65.99c0,36.46-29.55,66.01-66.01,66.01c-15.26,0-170.74,0-186.43,0c-28.65,0-51.87-23.22-51.87-51.87
	C8.19,298.17,30.45,275.34,58.26,274.38z"/>
<path class="st3" d="M312.51,312.09c0,36.14-29.06,65.5-65.1,65.99c10.81-11.76,17.4-27.43,17.4-44.64
	c0-36.18-29.12-65.55-65.21-65.99c-13.89-37.05-49.62-63.43-91.52-63.43c-4.95,0-9.81,0.38-14.57,1.08
	c16.91-14.02,38.61-22.43,62.28-22.43c41.91,0,77.64,26.37,91.53,63.43C283.4,246.53,312.51,275.89,312.51,312.09z"/>
<path d="M489.27,249.37c-12.92-13.33-29.72-21.68-47.92-23.95c-8-72.83-69.91-128.88-143.98-128.88c-3.52,0-7.03,0.13-10.52,0.38
	c-0.19-0.7-0.4-1.41-0.61-2.11c-1.97,1.21-4.08,2.2-6.29,2.92c-3.22,1.04-6.48,1.32-9.63,0.98c0.04,0.12,0.07,0.23,0.11,0.35
	c-18.23,3.43-35.66,10.33-51.39,20.47c-21.51,13.85-38.91,33.06-50.56,55.73c-4.18-0.51-8.41-0.78-12.68-0.78
	c-33.2,0-63.05,15.41-82.53,39.6c-0.89-0.92-1.76-1.85-2.61-2.78c-2.07,5.14-5.75,9.61-10.45,12.79c1.2,1.28,2.42,2.54,3.67,3.77
	c-6.75,11.77-11.33,24.95-13.12,39.03C21.76,271.33,0,296.13,0,326.21c0,33.12,26.95,60.06,60.07,60.06h280.12
	c4.52,0,8.19-3.66,8.19-8.19c0-4.52-3.67-8.19-8.19-8.19h-47.26c16.92-13.61,27.78-34.46,27.78-57.82c0-13.03-3.45-25.86-9.97-37.12
	c-2.27-3.92-7.28-5.25-11.19-2.98c-3.91,2.27-5.25,7.28-2.98,11.19c5.08,8.76,7.76,18.76,7.76,28.91
	c0,31.88-25.94,57.82-57.82,57.82H60.07c-24.09,0-43.68-19.6-43.68-43.68c0-23.66,18.51-42.83,42.16-43.64
	c4.22-0.15,7.64-3.48,7.89-7.69c2.85-47.12,42.1-84.03,89.35-84.03c37.13,0,70.83,23.35,83.86,58.11c1.19,3.17,4.19,5.28,7.57,5.32
	c9.42,0.12,18.75,2.55,26.98,7.05c3.97,2.17,8.95,0.71,11.12-3.25c2.17-3.97,0.71-8.95-3.25-11.12c-8.96-4.9-18.93-7.89-29.12-8.78
	c-12.68-29.12-37.89-50.76-67.73-59.47c10.28-18.35,24.9-33.94,42.7-45.4c20.7-13.33,44.72-20.38,69.46-20.38
	c67.82,0,124.14,52.97,128.24,120.6c0.26,4.21,3.67,7.55,7.9,7.69c34.83,1.19,62.12,29.45,62.12,64.31
	c0,35.49-28.88,64.37-64.37,64.37h-55.39c-4.53,0-8.19,3.66-8.19,8.19c0,4.52,3.66,8.19,8.19,8.19h55.39
	c44.53,0,80.76-36.23,80.76-80.75C512,284.45,503.92,264.51,489.27,249.37z"/>
<path d="M397.6,225.41c0.64,0,1.28-0.07,1.92-0.23c4.4-1.06,7.11-5.48,6.05-9.88c-1.48-6.15-3.5-12.21-6.02-18.02
	c-1.8-4.15-6.62-6.06-10.77-4.26c-4.15,1.8-6.06,6.62-4.26,10.77c2.14,4.94,3.86,10.11,5.12,15.34
	C390.55,222.89,393.9,225.41,397.6,225.41z"/>
<path d="M377.45,175.99c3.26-3.13,3.37-8.31,0.24-11.58c-21.23-22.12-49.76-34.3-80.32-34.3c-4.52,0-8.19,3.66-8.19,8.19
	c0,4.52,3.67,8.19,8.19,8.19c26.06,0,50.39,10.39,68.51,29.26c1.61,1.68,3.75,2.52,5.91,2.52
	C373.82,178.28,375.86,177.52,377.45,175.99z"/>
</svg>
