<?xml version="1.0" encoding="utf-8"?>
<!-- Generator: Adobe Illustrator 23.0.3, SVG Export Plug-In . SVG Version: 6.00 Build 0)  -->
<svg version="1.1" id="Calque_1" xmlns="http://www.w3.org/2000/svg" xmlns:xlink="http://www.w3.org/1999/xlink" x="0px" y="0px"
	 viewBox="0 0 499.11 176.43" style="enable-background:new 0 0 499.11 176.43;" xml:space="preserve">
<style type="text/css">
	.st0{fill:#E91E63;}
	.st1{fill:#5F0034;}
</style>
<g>
	<path class="st0" d="M242.64,126.2h22.21c0,2.03,0,2.88-0.06,3.56c-0.06,0.73-0.23,1.41-0.73,1.92c-0.68,0.68-2.03,0.79-4.75,0.79
		h-4.35v28.42c-7.06,0-7.52-0.23-7.52-5.43v-23h-10.06C237.39,126.65,237.72,126.2,242.64,126.2z"/>
	<path class="st0" d="M322.15,160.86c-4.01-0.06-5.14-0.68-7.74-3.84l-7.85-9.72c-1.41-1.75-1.24-5.09,2.03-5.09h2.15
		c3.73,0,5.59,0.11,6.5-0.56c0.85-0.56,0.68-3.56,0.68-4.41c0-2.15-0.68-4.86-7.29-4.86h-5.76v28.48c-1.53,0-5.37,0.28-6.67-0.73
		c-0.85-0.68-1.02-2.03-1.02-4.75v-23.73c0-2.77-0.4-5.08,3.28-5.42c0.85-0.06,1.98-0.06,3.5-0.06h6.38
		c13.62,0,15.31,6.44,15.31,11.07c0,7.97-4.75,10.79-10.12,10.79l12.54,12.83H322.15z"/>
	<path class="st0" d="M359.83,155.53V126.2c7.12,0,7.74,0.17,7.74,5.14v29.55C360.45,160.9,359.83,160.67,359.83,155.53z"/>
	<path class="st0" d="M414.62,149.33h-6.1v11.53c-1.53,0-5.37,0.28-6.67-0.73c-0.85-0.74-1.02-2.03-1.02-4.8v-23.68
		c0-2.77-0.34-5.08,3.28-5.42c0.85-0.06,1.98-0.06,3.5-0.06h6.61c13.79,0,15.31,6.56,15.31,11.53
		C429.54,142.5,428.58,149.33,414.62,149.33z M421.74,137.69c0-2.37-0.56-5.31-7.35-5.31h-5.93v10.85h6.1
		c7.01,0,7.12,0.06,7.12-5.54H421.74z"/>
	<path class="st0" d="M470.34,160.9H457.8c0-3.56,0.11-4.92,0.79-5.59c0.68-0.79,2.03-0.9,4.8-0.9h6.78c1.13,0,5.93,0.11,6.95-0.34
		c0.73-0.4,0.62-2.6,0.62-3.16c0-2.94-4.24-3.96-6.56-4.41c-5.99-1.24-14.35-1.58-14.47-9.78c-0.17-6.61,4.52-10.68,14.69-10.68
		h12.6c0,5.99-0.34,6.38-5.48,6.38h-7.35c-0.9,0-5.48-0.11-6.33,0.4c-0.79,0.45-0.57,3.05-0.57,3.62c0,1.07,0.79,2.03,2.94,2.71
		c6.67,2.09,18.03,1.41,18.03,11.19C485.26,155.53,481.65,160.9,470.34,160.9z"/>
</g>
<path class="st1" d="M276.89,100.66c-1.84,6.1-3.12,9.22-4.97,10.92c-2.55,2.13-6.95,1.84-10.22,1.84h-10.07l-19.72-63.28
	l-15.47,50.51c-3.83,11.92-3.97,12.77-17.45,12.77h-7.8l-27.95-87.4c4.11,0,14.33-0.57,18.3,1.7c3.69,2.13,4.68,7.38,5.82,10.92
	l14.61,51.93l19.86-64.56c4.26,0,14.47-0.43,18.59,1.7c3.97,2.13,5.11,7.24,6.24,10.92l15.89,51.93l14.61-51.93
	c3.55-12.63,3.83-12.63,23.41-12.63L276.89,100.66z"/>
<path class="st1" d="M320.88,99.67V43.91c3.69,0,12.91-0.57,16.17,1.99c2.13,1.7,2.55,4.82,2.55,11.49v56.05
	C322.16,113.43,320.88,112.73,320.88,99.67z"/>
<path class="st1" d="M366.57,99.67V17.09c3.69,0,12.91-0.71,16.17,1.84c2.13,1.7,2.7,4.97,2.7,11.63v82.86
	C367.84,113.43,366.57,112.73,366.57,99.67z"/>
<path class="st1" d="M467.02,102.08c-3.55,6.39-12.34,12.2-24.83,12.2c-24.83,0-31.92-17.31-31.92-35.9
	c0-18.73,6.81-35.61,31.78-35.61c10.22,0,18.87,4.97,21.42,10.22v-35.9c3.83,0,12.91-0.71,16.18,1.84c2.13,1.7,2.55,5.11,2.55,11.92
	v82.58C467.88,113.43,467.02,113.43,467.02,102.08z M463.9,78.39c0-12.77-2.84-19.72-17.45-19.72c-17.31,0-17.17-0.85-17.17,19.72
	c0,13.05,3.12,20.29,17.03,20.29c17.74,0,17.31,0.28,17.31-20.29H463.9z"/>
<path class="st0" d="M330.1,36.53c-6.81,0-13.05-2.13-13.05-10.5c0-8.66,5.96-10.5,13.05-10.5c6.81,0,12.49,1.99,12.49,10.5
	C342.59,34.4,336.91,36.53,330.1,36.53z"/>
<path class="st0" d="M114.39,105.88c0,13.58,11.01,24.58,24.58,24.58c13.58,0,24.58-11.01,24.58-24.58
	c0-13.58-11.01-24.58-24.58-24.58C125.4,81.31,114.41,92.31,114.39,105.88z M138.98,86.21c10.86,0,19.67,8.81,19.67,19.67
	s-8.81,19.67-19.67,19.67c-10.86,0-19.67-8.81-19.67-19.67C119.32,95.02,128.12,86.22,138.98,86.21z"/>
<path class="st0" d="M124.93,155.05h28.1v4.92h-28.1V155.05z"/>
<path class="st0" d="M114.39,145.21h49.17v4.92h-49.17V145.21z"/>
<path class="st1" d="M153.73,135.52h77.95v4.78h-77.95V135.52z"/>
<path d="M60.31,145.21h4.92v4.92h-4.92V145.21z"/>
<path d="M45.56,150.13h4.92v4.92h-4.92V150.13z"/>
<path class="st1" d="M60.55,131.38c12.84-22.36,20.89-47.14,23.65-72.77l22.86,22.73c0.46,0.46,1.08,0.71,1.72,0.72
	c0.13,0,0.27-0.01,0.4-0.03c0.78-0.13,1.45-0.62,1.8-1.33c4.63-9.25,2.82-20.43-4.5-27.74l-2.01-2.01h17.29
	c1.36,0,2.46-1.1,2.46-2.46c0-0.27-0.04-0.53-0.13-0.78c-3.26-9.82-12.45-16.44-22.8-16.43h-3.2l12.28-12.35
	c0.96-0.96,0.95-2.52-0.01-3.48c-0.19-0.19-0.4-0.34-0.64-0.46c-9.25-4.64-20.44-2.83-27.75,4.5l-2.35,2.35
	c-0.77,0.77-1.48,1.59-2.13,2.46c-0.65-0.87-1.35-1.69-2.11-2.46l-2.35-2.35c-7.31-7.32-18.49-9.14-27.74-4.5
	c-1.21,0.61-1.71,2.08-1.1,3.3c0.12,0.24,0.27,0.45,0.46,0.64l12.29,12.35h-3.23c-10.35-0.01-19.54,6.61-22.8,16.43
	c-0.43,1.29,0.26,2.68,1.55,3.11c0.25,0.08,0.51,0.13,0.78,0.13h17.27l-2.01,2.01c-7.32,7.31-9.14,18.49-4.5,27.74
	c0.35,0.71,1.02,1.2,1.8,1.33c0.13,0.02,0.26,0.03,0.4,0.03c0.65,0,1.27-0.26,1.73-0.72l21.29-21.16
	c-2.64,23.56-11.51,45.99-25.7,64.97c-3.3-0.87-6.65-1.55-10.03-2.05l-1.54-0.15l-0.49,4.89l1.43,0.14c2.46,0.35,4.9,0.85,7.33,1.41
	c-0.49,0.62-0.98,1.24-1.49,1.85l3.77,3.15c18.89-22.46,30.16-50.35,32.16-79.63l2.83-2.81l2.12,2.11
	c-2.58,31.32-13.33,61.41-31.17,87.27l4.03,2.82c1.93-2.76,3.78-5.62,5.56-8.54c11.5,5.5,21.65,13.46,29.75,23.3l3.8-3.12
	c-4.79-5.82-10.27-11.03-16.33-15.5h103.04v-4.92H67.99C65.58,133.92,63.09,132.61,60.55,131.38z M107.89,75.21L81.91,49.39
	c6.64-1.98,13.84-0.18,18.77,4.7l2.35,2.35C107.94,61.34,109.8,68.54,107.89,75.21z M118.01,46.03H97.66
	c-4.74-2.26-10.09-2.9-15.23-1.82c3.58-5.03,9.37-8.02,15.54-8.02h3.32C108.24,36.18,114.65,39.95,118.01,46.03z M83.11,25.32
	l2.35-2.35c4.91-4.92,12.11-6.78,18.79-4.86L89.67,32.77c-4.73,1.74-8.79,4.93-11.61,9.11C76.92,35.87,78.81,29.67,83.11,25.32
	L83.11,25.32z M69.56,22.97l2.35,2.35c1.09,1.12,2.05,2.37,2.83,3.72c-1.11,2.59-1.75,5.36-1.88,8.17c-2.21-1.93-4.75-3.43-7.5-4.45
	L50.78,18.11C57.46,16.19,64.66,18.06,69.56,22.97L69.56,22.97z M53.72,36.2h3.32c6.18-0.01,11.97,2.98,15.56,8.01
	c-5.14-1.07-10.48-0.44-15.22,1.82H37.02C40.38,39.95,46.78,36.19,53.72,36.2L53.72,36.2z M47.14,75.21
	c-1.92-6.68-0.06-13.87,4.86-18.78l2.35-2.35c3.54-3.53,8.33-5.5,13.33-5.49c1.84,0,3.68,0.26,5.45,0.78L47.14,75.21z"/>
</svg>
