<?xml version="1.0" encoding="utf-8"?>
<!-- Generator: Adobe Illustrator 23.0.3, SVG Export Plug-In . SVG Version: 6.00 Build 0)  -->
<svg version="1.1" id="Calque_1" xmlns="http://www.w3.org/2000/svg" xmlns:xlink="http://www.w3.org/1999/xlink" x="0px" y="0px"
	 viewBox="0 0 480.18 131.92" style="enable-background:new 0 0 480.18 131.92;" xml:space="preserve">
<style type="text/css">
	.st0{fill:#303A59;}
	.st1{fill:#EFC75D;}
	.st2{fill:#EBF0F3;}
	.st3{fill:#FFE854;}
	.st4{fill:#FFCF11;}
	.st5{fill:#FFFFFF;}
</style>
<path class="st0" d="M148.81,92.99l-7.33-53.53h8.78c1.24,11.55,2.89,29.31,3.3,39.42h0.15c1.23-11.33,3.46-27.69,4.98-39.42h8.03
	c1.59,12.12,3.82,27.24,4.9,39.05h0.17c0.63-10.45,2.2-26.92,3.44-39.05h8.35l-7.91,53.53h-8.42c-1.51-12-3.61-26.28-4.75-37.3
	h-0.15c-1.24,11.25-3.58,25.76-5.18,37.3C157.17,92.99,148.81,92.99,148.81,92.99z"/>
<path class="st0" d="M193.44,74.44v6.09c0,3.2,0.74,6.13,3.87,6.13c3.29,0,3.7-2.94,3.7-5.93v-0.2h8.04v0.19
	c0,4.35-0.93,12.89-11.55,12.89c-10.56,0-12.11-6.54-12.11-14.93V65.11c0-5.67,1.79-14.24,12.07-14.24
	c8.86,0,11.74,5.97,11.74,14.18c0,2.43,0,7.01,0,9.4h-15.76V74.44z M201.3,67.98v-4.25c0-3.84-0.88-5.91-3.85-5.91
	c-2.66,0-3.94,1.89-3.94,5.92v4.24H201.3z"/>
<path class="st0" d="M236.56,84.49c0,2.61,0.01,6.91,0.16,8.49h-7.54c-0.17-0.78-0.46-2.45-0.53-3.04
	c-1.41,2.54-3.65,3.68-6.84,3.68c-6.24,0-8.75-5.78-8.75-12.04v-0.72c0-10.22,6.89-12.94,14.36-12.94c0.25,0,0.61,0,0.95,0v-5.29
	c0-3.25-0.39-5.08-2.9-5.08c-2.45,0-3.01,1.91-3.01,4.48v0.68h-8.12v-0.53c0-6,2.3-11.32,11.42-11.32c8.01,0,10.81,4.42,10.81,11.12
	v22.51C236.57,84.49,236.56,84.49,236.56,84.49z M228.51,74.18c-0.36,0-1.14,0-1.37,0c-3.77,0-6.25,1.43-6.25,6.6v0.65
	c0,2.93,1.06,5.01,3.64,5.01c2.76,0,3.98-1.91,3.98-7.5V74.18z"/>
<path class="st0" d="M239.95,51.51h4.4v-9.96h8.25v9.96h5.2v7.24h-5.2v24.53c0,1.96,0.27,3.53,2.77,3.53c0.73,0,1.81-0.08,2.25-0.24
	v6.22c-1.39,0.67-3.48,0.82-5.04,0.82c-5.18,0-8.23-1.67-8.23-8.86v-26h-4.4L239.95,51.51L239.95,51.51z"/>
<path class="st0" d="M270.11,37.12v17.82c1.3-2.39,3.63-4.07,7.71-4.07c6.34,0,8.31,4.76,8.31,10.68v31.44h-8.26V63.74
	c0-3.06-0.6-5.47-3.64-5.47c-3.21,0-4.12,2.11-4.12,6.85v27.87h-8.26V37.12H270.11z"/>
<path class="st0" d="M299.95,74.44v6.09c0,3.2,0.74,6.13,3.87,6.13c3.29,0,3.7-2.94,3.7-5.93v-0.2h8.04v0.19
	c0,4.35-0.93,12.89-11.55,12.89c-10.56,0-12.11-6.54-12.11-14.93V65.11c0-5.67,1.79-14.24,12.07-14.24
	c8.86,0,11.74,5.97,11.74,14.18c0,2.43,0,7.01,0,9.4h-15.76L299.95,74.44L299.95,74.44z M307.81,67.98v-4.25
	c0-3.84-0.88-5.91-3.85-5.91c-2.66,0-3.94,1.89-3.94,5.92v4.24H307.81z"/>
<path class="st0" d="M321.24,65.56c0-6.89,0.07-9.82-0.08-14.06h7.82c0.08,0.8,0.23,4.49,0.23,6.72c1.64-5.61,5.29-7.32,9.14-7.34
	v10.18c-4.73,0.01-8.86,1.21-8.86,9.71v22.22h-8.26L321.24,65.56L321.24,65.56z"/>
<path class="st1" d="M352.41,73.59l-7.13,19.39h-4.41l20.6-56.1h5.13l21.48,56.1h-4.73l-7.29-19.39H352.41z M374.61,69.59
	c-6.25-16.67-9.46-24.68-10.58-28.45h-0.08c-1.36,4.25-4.97,14.18-10.02,28.45H374.61z"/>
<path class="st1" d="M400.74,87.06v21.96h-4.01V62.78c0-3.29,0-6.81-0.08-9.86h3.93c0.16,1.52,0.16,3.93,0.16,7.21
	c2.48-4.81,6.89-8.17,14.1-8.17c9.46,0,16.03,7.93,16.03,19.95c0,14.43-7.69,22.04-17.39,22.04
	C406.43,93.95,402.74,90.82,400.74,87.06z M426.63,72.07c0-9.3-4.49-16.27-12.42-16.27c-9.7,0-13.7,6.09-13.7,16.99
	c0,10.74,3.13,17.39,13.14,17.39C421.98,90.18,426.63,83.13,426.63,72.07z"/>
<path class="st1" d="M444.9,87.06v21.96h-4.01V62.78c0-3.29,0-6.81-0.08-9.86h3.93c0.16,1.52,0.16,3.93,0.16,7.21
	c2.48-4.81,6.89-8.17,14.1-8.17c9.46,0,16.03,7.93,16.03,19.95c0,14.43-7.69,22.04-17.39,22.04
	C450.59,93.95,446.9,90.82,444.9,87.06z M470.78,72.07c0-9.3-4.49-16.27-12.42-16.27c-9.7,0-13.7,6.09-13.7,16.99
	c0,10.74,3.13,17.39,13.14,17.39C466.13,90.18,470.78,83.13,470.78,72.07z"/>
<path class="st0" d="M120.35,65.14c0,31.75-25.74,57.49-57.49,57.49S5.37,96.89,5.37,65.14S31.11,7.65,62.86,7.65
	S120.35,33.39,120.35,65.14z"/>
<path class="st2" d="M87.79,85.13H55.53c-1.86,0-3.37,1.51-3.37,3.37s-1.51,3.37-3.37,3.37H30.6c-1.86,0-3.37,1.51-3.37,3.37
	s-1.51,3.37-3.37,3.37h-7.75c3.73,5.21,8.32,9.77,13.55,13.47h53.42c1.86,0,3.37-1.51,3.37-3.37s-1.51-3.37-3.37-3.37H70.95
	c-1.86,0-3.37-1.51-3.37-3.37s1.51-3.37,3.37-3.37h5.39c1.86,0,3.37-1.51,3.37-3.37s1.51-3.37,3.37-3.37h4.72
	c1.86,0,3.37-1.51,3.37-3.37C91.16,86.64,89.65,85.13,87.79,85.13z"/>
<path class="st3" d="M120.35,48.07c0,22.33-18.1,40.42-40.42,40.42c-22.33,0-40.42-18.1-40.42-40.42S57.61,7.65,79.93,7.65
	C102.26,7.65,120.35,25.75,120.35,48.07z"/>
<g>
	<path class="st4" d="M52.98,48.07c0-20.03,14.57-36.65,33.69-39.86c-2.19-0.37-4.44-0.56-6.74-0.56
		c-22.33,0-40.42,18.1-40.42,40.42c0,22.33,18.1,40.42,40.42,40.42c2.3,0,4.55-0.19,6.74-0.56C67.55,84.73,52.98,68.1,52.98,48.07z"
		/>
	<path class="st4" d="M76.34,34.82c0,7.44-6.03,13.48-13.48,13.48s-13.48-6.03-13.48-13.48s6.03-13.48,13.48-13.48
		S76.34,27.38,76.34,34.82z"/>
	<path class="st4" d="M103.95,27.25c0,4.18-3.39,7.57-7.58,7.57s-7.57-3.39-7.57-7.57s3.39-7.58,7.57-7.58
		S103.95,23.06,103.95,27.25z"/>
	<path class="st4" d="M117.05,64.1c-2.79-5.32-8.35-8.95-14.77-8.95c-9.21,0-16.67,7.46-16.67,16.67c0,6.06,3.23,11.36,8.06,14.28
		C104.16,82.31,112.64,74.29,117.05,64.1z"/>
</g>
<path class="st5" d="M63.43,65.14c0-1.86,1.51-3.37,3.37-3.37h0.79c1.86,0,3.37-1.51,3.37-3.37s-1.51-3.37-3.37-3.37H22.44
	c-1.86,0-3.37,1.51-3.37,3.37s-1.51,3.37-3.37,3.37h-0.79c-1.86,0-3.37,1.51-3.37,3.37s1.51,3.37,3.37,3.37h10.55
	c1.86,0,3.37,1.51,3.37,3.37s1.51,3.37,3.37,3.37h45.14c1.86,0,3.37-1.51,3.37-3.37s-1.51-3.37-3.37-3.37H66.79
	C64.93,68.51,63.43,67,63.43,65.14z"/>
</svg>
