<?xml version="1.0" encoding="utf-8"?>
<!-- Generator: Adobe Illustrator 23.0.3, SVG Export Plug-In . SVG Version: 6.00 Build 0)  -->
<svg version="1.1" id="Calque_1" xmlns="http://www.w3.org/2000/svg" xmlns:xlink="http://www.w3.org/1999/xlink" x="0px" y="0px"
	 viewBox="0 0 548.55 179.79" style="enable-background:new 0 0 548.55 179.79;" xml:space="preserve">
<style type="text/css">
	.st0{fill:#E91E63;}
	.st1{fill:#5F0034;}
</style>
<g>
	<path class="st0" d="M222.95,127.38h24.3c0,2.23,0,3.15-0.06,3.9c-0.06,0.8-0.25,1.55-0.8,2.1c-0.74,0.74-2.23,0.87-5.19,0.87
		h-4.76v31.1c-7.73,0-8.22-0.25-8.22-5.94v-25.17H217.2C217.2,127.88,217.58,127.38,222.95,127.38z"/>
	<path class="st0" d="M309.96,165.31c-4.39-0.06-5.63-0.74-8.47-4.2l-8.59-10.64c-1.55-1.92-1.36-5.57,2.23-5.57h2.35
		c4.08,0,6.12,0.12,7.11-0.62c0.93-0.62,0.74-3.9,0.74-4.82c0-2.35-0.74-5.32-7.98-5.32h-6.31v31.17c-1.67,0-5.87,0.31-7.3-0.8
		c-0.93-0.74-1.11-2.23-1.11-5.2v-25.97c0-3.03-0.43-5.56,3.59-5.94c0.93-0.06,2.16-0.06,3.83-0.06h6.99
		c14.9,0,16.76,7.05,16.76,12.12c0,8.72-5.19,11.81-11.07,11.81l13.73,14.04H309.96z"/>
	<path class="st0" d="M351.19,159.47v-32.09c7.79,0,8.47,0.19,8.47,5.63v32.34C351.87,165.35,351.19,165.1,351.19,159.47z"/>
	<path class="st0" d="M411.15,152.7h-6.68v12.61c-1.67,0-5.88,0.31-7.3-0.8c-0.93-0.8-1.11-2.23-1.11-5.26v-25.91
		c0-3.03-0.37-5.56,3.59-5.94c0.93-0.06,2.16-0.06,3.83-0.06h7.23c15.09,0,16.76,7.17,16.76,12.61
		C427.48,145.21,426.43,152.7,411.15,152.7z M418.94,139.96c0-2.6-0.62-5.81-8.04-5.81h-6.49v11.87h6.68c7.67,0,7.79,0.06,7.79-6.06
		H418.94z"/>
	<path class="st0" d="M472.13,165.35h-13.73c0-3.9,0.12-5.38,0.87-6.12c0.74-0.87,2.23-0.99,5.26-0.99h7.42
		c1.24,0,6.49,0.12,7.61-0.37c0.8-0.43,0.68-2.84,0.68-3.46c0-3.22-4.64-4.33-7.17-4.82c-6.55-1.36-15.71-1.73-15.83-10.7
		c-0.19-7.23,4.95-11.69,16.08-11.69h13.79c0,6.55-0.37,6.99-6,6.99h-8.04c-0.99,0-6-0.12-6.93,0.43c-0.87,0.49-0.62,3.34-0.62,3.96
		c0,1.17,0.87,2.23,3.21,2.97c7.3,2.29,19.73,1.55,19.73,12.24C488.46,159.47,484.5,165.35,472.13,165.35z"/>
</g>
<path class="st1" d="M294.91,105.21c-2.02,6.68-3.42,10.09-5.43,11.96c-2.79,2.33-7.61,2.02-11.18,2.02h-11.02l-21.58-69.25
	l-16.92,55.27c-4.19,13.04-4.35,13.97-19.1,13.97h-8.54l-30.59-95.64c4.5,0,15.68-0.62,20.03,1.86c4.04,2.33,5.12,8.07,6.37,11.96
	l15.99,56.83l21.74-70.65c4.66,0,15.84-0.47,20.34,1.86c4.35,2.33,5.59,7.92,6.83,11.96l17.39,56.83l15.99-56.83
	c3.88-13.82,4.19-13.82,25.62-13.82L294.91,105.21z"/>
<path class="st1" d="M343.05,104.12V43.1c4.04,0,14.13-0.62,17.7,2.17c2.33,1.86,2.79,5.28,2.79,12.58v61.33
	C344.45,119.18,343.05,118.41,343.05,104.12z"/>
<path class="st1" d="M393.05,104.12V13.76c4.04,0,14.13-0.78,17.7,2.02c2.33,1.86,2.95,5.43,2.95,12.73v90.68
	C394.44,119.18,393.05,118.41,393.05,104.12z"/>
<path class="st1" d="M502.98,106.76c-3.88,6.99-13.51,13.35-27.17,13.35c-27.17,0-34.94-18.94-34.94-39.28
	c0-20.5,7.45-38.97,34.78-38.97c11.18,0,20.65,5.43,23.45,11.18V13.76c4.19,0,14.13-0.78,17.7,2.02c2.33,1.86,2.79,5.59,2.79,13.04
	v90.37C503.91,119.18,502.98,119.18,502.98,106.76z M499.56,80.83c0-13.97-3.1-21.58-19.1-21.58c-18.94,0-18.79-0.93-18.79,21.58
	c0,14.28,3.42,22.2,18.63,22.2c19.41,0,18.94,0.31,18.94-22.2H499.56z"/>
<path class="st0" d="M353.14,35.03c-7.45,0-14.28-2.33-14.28-11.49c0-9.47,6.52-11.49,14.28-11.49c7.45,0,13.66,2.17,13.66,11.49
	C366.81,32.7,360.59,35.03,353.14,35.03z"/>
<path class="st0" d="M117.09,110.91c0,14.86,12.04,26.9,26.9,26.9c14.86,0,26.9-12.04,26.9-26.9c0-14.86-12.04-26.9-26.9-26.9
	C129.14,84.03,117.1,96.06,117.09,110.91z M143.99,89.39c11.89,0,21.52,9.64,21.52,21.52s-9.64,21.52-21.52,21.52
	s-21.52-9.64-21.52-21.52C122.48,99.03,132.11,89.4,143.99,89.39z"/>
<path class="st0" d="M128.62,164.72h30.75v5.38h-30.75V164.72z"/>
<path class="st0" d="M117.09,153.96h53.81v5.38h-53.81V153.96z"/>
<path d="M57.9,153.96h5.38v5.38H57.9V153.96z"/>
<path d="M41.76,159.34h5.38v5.38h-5.38V159.34z"/>
<path class="st1" d="M58.17,138.82c14.05-24.47,22.86-51.58,25.88-79.63l25.02,24.87c0.5,0.5,1.18,0.78,1.88,0.78
	c0.15,0,0.29-0.01,0.44-0.03c0.85-0.14,1.59-0.68,1.97-1.45c5.07-10.12,3.09-22.36-4.93-30.35l-2.2-2.2h18.92
	c1.49,0,2.69-1.2,2.69-2.69c0-0.29-0.05-0.58-0.14-0.85c-3.57-10.74-13.63-17.99-24.95-17.98h-3.5l13.44-13.51
	c1.05-1.05,1.04-2.76-0.01-3.8c-0.2-0.2-0.44-0.37-0.7-0.5c-10.13-5.08-22.37-3.09-30.37,4.93l-2.57,2.57
	c-0.84,0.84-1.62,1.74-2.33,2.69c-0.71-0.95-1.48-1.85-2.31-2.69l-2.57-2.57c-8-8.01-20.23-10-30.35-4.93
	c-1.33,0.66-1.87,2.28-1.2,3.61c0.13,0.26,0.3,0.49,0.5,0.7l13.45,13.51h-3.53c-11.32-0.01-21.38,7.23-24.95,17.98
	c-0.47,1.41,0.29,2.93,1.7,3.4c0.27,0.09,0.56,0.14,0.85,0.14h18.9l-2.2,2.2c-8.01,8-10,20.23-4.93,30.35
	c0.39,0.77,1.12,1.31,1.97,1.45c0.14,0.02,0.29,0.04,0.44,0.03c0.71,0,1.39-0.28,1.9-0.78l23.3-23.16
	C64.8,86.68,55.09,111.22,39.56,132c-3.62-0.95-7.28-1.7-10.98-2.24l-1.68-0.17l-0.54,5.36l1.57,0.15c2.69,0.39,5.36,0.93,8.02,1.54
	c-0.54,0.68-1.08,1.36-1.63,2.03l4.13,3.45c20.67-24.58,33-55.1,35.19-87.14l3.1-3.08l2.32,2.31c-2.83,34.27-14.59,67.2-34.11,95.5
	l4.41,3.08c2.12-3.02,4.13-6.15,6.09-9.35c12.58,6.02,23.7,14.72,32.55,25.5l4.16-3.41c-5.24-6.37-11.24-12.07-17.87-16.97h112.75
	v-5.38H66.31C63.67,141.6,60.95,140.16,58.17,138.82z M109.97,77.36L81.54,49.1c7.27-2.17,15.15-0.2,20.54,5.14l2.57,2.57
	C110.03,62.18,112.07,70.05,109.97,77.36z M121.05,45.42H98.78c-5.19-2.47-11.04-3.17-16.66-1.99c3.91-5.5,10.25-8.77,17.01-8.77
	h3.63C110.36,34.65,117.37,38.77,121.05,45.42z M82.85,22.76l2.57-2.57c5.38-5.38,13.25-7.42,20.56-5.32L90.04,30.91
	c-5.18,1.9-9.62,5.39-12.7,9.97C76.09,34.3,78.15,27.52,82.85,22.76L82.85,22.76z M68.03,20.19l2.57,2.57
	c1.2,1.22,2.24,2.59,3.09,4.08c-1.22,2.83-1.91,5.86-2.06,8.94c-2.41-2.11-5.2-3.76-8.2-4.86L47.48,14.87
	C54.79,12.77,62.67,14.81,68.03,20.19L68.03,20.19z M50.7,34.66h3.63c6.76-0.01,13.1,3.26,17.02,8.77
	c-5.62-1.18-11.47-0.48-16.66,1.99H32.41C36.1,38.77,43.1,34.65,50.7,34.66L50.7,34.66z M43.5,77.36
	c-2.1-7.31-0.06-15.18,5.32-20.55l2.57-2.57c3.87-3.86,9.12-6.02,14.59-6c2.02,0,4.02,0.29,5.96,0.86L43.5,77.36z"/>
</svg>
