<?xml version="1.0" encoding="utf-8"?>
<!-- Generator: Adobe Illustrator 23.0.3, SVG Export Plug-In . SVG Version: 6.00 Build 0)  -->
<svg version="1.1" id="Calque_1" xmlns="http://www.w3.org/2000/svg" xmlns:xlink="http://www.w3.org/1999/xlink" x="0px" y="0px"
	 viewBox="0 0 581 581" style="enable-background:new 0 0 581 581;" xml:space="preserve">
<style type="text/css">
	.st0{fill:#EFEFEF;}
</style>
<path class="st0" d="M329.37,367.75c0,53.44,43.32,96.77,96.77,96.77c53.44,0,96.76-43.32,96.76-96.77
	c0-53.44-43.32-96.76-96.76-96.76C372.72,271.05,329.43,314.34,329.37,367.75z M426.14,290.34c42.75,0,77.41,34.66,77.41,77.41
	s-34.66,77.41-77.41,77.41s-77.41-34.66-77.41-77.41C348.78,325.02,383.41,290.39,426.14,290.34z"/>
<path class="st0" d="M370.85,561.29h110.6v19.35h-110.6V561.29z"/>
<path class="st0" d="M329.37,522.58h193.54v19.36H329.37V522.58z"/>
<path class="st0" d="M116.49,522.58h19.36v19.36h-19.36C116.49,541.94,116.49,522.58,116.49,522.58z"/>
<path class="st0" d="M58.43,541.94h19.35v19.36H58.43V541.94z"/>
<path class="st0" d="M117.45,468.13c50.53-88,82.23-185.54,93.1-286.43l90,89.46c1.8,1.79,4.23,2.8,6.77,2.81
	c0.52,0,1.05-0.04,1.57-0.12c3.07-0.5,5.71-2.44,7.09-5.22c18.24-36.41,11.1-80.42-17.73-109.18l-7.91-7.92h68.06
	c5.34,0,9.68-4.33,9.68-9.67c0-1.05-0.17-2.08-0.5-3.07c-12.85-38.65-49.02-64.71-89.75-64.67h-12.58l48.33-48.61
	c3.77-3.79,3.76-9.91-0.03-13.68c-0.73-0.73-1.58-1.34-2.5-1.8C274.63-8.24,230.6-1.1,201.82,27.74l-9.24,9.24
	c-3.01,3.03-5.81,6.27-8.39,9.68c-2.55-3.41-5.32-6.64-8.32-9.68l-9.24-9.24C137.87-1.08,93.86-8.22,57.46,10.03
	c-4.78,2.39-6.72,8.2-4.33,12.98c0.46,0.93,1.07,1.77,1.8,2.5l48.38,48.61H90.6c-40.73-0.04-76.9,26.02-89.75,64.67
	c-1.69,5.07,1.04,10.55,6.11,12.24c0.99,0.33,2.03,0.5,3.07,0.5h68l-7.91,7.92C41.3,188.21,34.16,232.22,52.4,268.63
	c1.39,2.78,4.03,4.72,7.09,5.22c0.52,0.09,1.04,0.13,1.57,0.12c2.56,0,5.01-1.01,6.82-2.81l83.8-83.31
	c-10.38,92.73-45.3,181.01-101.17,255.74c-13.01-3.42-26.19-6.11-39.5-8.05l-6.05-0.61L3.03,454.2l5.64,0.55
	c9.68,1.39,19.29,3.34,28.86,5.56c-1.94,2.43-3.87,4.9-5.88,7.29L46.49,480c74.36-88.41,118.7-198.18,126.59-313.44l11.14-11.07
	l8.34,8.29C182.39,287.05,140.08,405.5,69.85,507.31L85.7,518.4c7.61-10.86,14.87-22.13,21.9-33.62
	c45.27,21.65,85.23,52.96,117.09,91.73l14.97-12.26c-18.84-22.9-40.42-43.4-64.26-61.03h405.57v-19.36H146.73
	C137.24,478.15,127.45,472.96,117.45,468.13z M303.77,247.05L201.53,145.4c26.15-7.81,54.48-0.72,73.87,18.48l9.24,9.24
	C304,192.45,311.32,220.77,303.77,247.05z M343.64,132.18h-80.12c-18.66-8.88-39.71-11.4-59.94-7.15
	c14.08-19.8,36.87-31.56,61.17-31.55h13.06C305.16,93.43,330.38,108.25,343.64,132.18z M206.23,50.67l9.24-9.24
	c19.34-19.36,47.67-26.69,73.97-19.13L232.08,80c-18.62,6.85-34.6,19.4-45.68,35.85c-4.5-23.67,2.92-48.05,19.87-65.18H206.23z
	 M152.92,41.43l9.24,9.24c4.31,4.4,8.05,9.33,11.13,14.66c-4.38,10.19-6.89,21.09-7.39,32.17c-8.69-7.59-18.69-13.52-29.51-17.5
	L79.02,22.3c26.29-7.55,54.61-0.23,73.94,19.13H152.92z M90.57,93.47h13.07c24.31-0.02,47.14,11.73,61.23,31.54
	c-20.21-4.23-41.26-1.71-59.91,7.16H24.81c13.26-23.91,38.45-38.73,65.8-38.71h-0.04V93.47z M64.68,247.05
	c-7.55-26.29-0.23-54.6,19.13-73.93l9.24-9.24c13.92-13.89,32.8-21.66,52.47-21.6c7.26,0,14.48,1.04,21.44,3.08L64.68,247.05z"/>
</svg>
